<?xml version="1.0" standalone="no"?><!DOCTYPE svg PUBLIC "-//W3C//DTD SVG 1.1//EN" "http://www.w3.org/Graphics/SVG/1.1/DTD/svg11.dtd"><svg class="icon" width="200px" height="200.00px" viewBox="0 0 1024 1024" version="1.1" xmlns="http://www.w3.org/2000/svg"><path fill="#94999d" d="M816.489364 843.116303H207.508589c-30.882358 0-55.887868-24.110117-55.887868-53.821813v-59.185984c0-14.391778 5.380544-28.116361 14.471596-37.806047l70.133314-93.646844V423.684582c0-79.867002 27.060309-153.967674 76.234265-208.519104 23.094998-25.689079 50.090838-45.733601 80.249719-60.364833 8.450463-4.098341 15.318894-10.918677 18.481933-19.764136 14.794961-41.405015 54.255695-71.062476 100.726076-71.062475 0.029676 0 0.054235 0.004093 0.083911 0.008186a0.528026 0.528026 0 0 1 0.079818-0.008186c46.472428 0 85.933161 29.65746 100.730169 71.062475 3.15997 8.845459 10.030447 15.665795 18.479886 19.764136 30.159904 14.631232 57.156768 34.675754 80.249719 60.364833 49.173956 54.552453 76.232219 128.652102 76.232219 208.519104v174.972057l70.133313 93.646843c9.095145 9.688663 14.471596 23.414269 14.471597 37.806048v59.185984c0 29.711695-25.003464 53.82079-55.888892 53.820789z m-0.608867-113.007797l-70.188572-93.588515c-9.093099-9.523911-14.471596-23.357987-14.471596-37.864376V423.684582c0-65.583694-21.787212-125.963876-61.432141-170.096003-19.568684-21.73093-42.691311-38.705534-68.746734-50.465369a191.223183 191.223183 0 0 0-9.311063-3.895726c-15.830547-6.139837-28.788673-19.481703-31.66928-36.217877a51.103912 51.103912 0 0 0-2.0241-7.866154c-5.341658-15.58393-18.805298-27.962865-34.881438-31.507598-0.480954-0.105401-0.937348-0.060375-1.416256-0.150426v0.097214c-3.149736-0.648776-6.411013-0.98749-9.737782-1.036609-3.328815 0.049119-6.592139 0.387833-9.741875 1.036609v-0.097214c-0.478907 0.090051-0.933255 0.045025-1.414209 0.150426-16.078187 3.545756-29.54285 15.924691-34.883485 31.507598a50.859341 50.859341 0 0 0-2.022053 7.866154c-2.882654 16.737196-15.84078 30.078039-31.66928 36.217877a190.467983 190.467983 0 0 0-9.309017 3.895726c-26.059516 11.759835-49.180096 28.734438-68.750827 50.465369-39.640836 44.132126-61.430094 104.513332-61.430094 170.096003v174.972057c0 14.506389-5.380544 28.340465-14.471597 37.864376l-70.190618 93.588515-0.555656 58.597583 304.437688 0.293688 304.437687-0.293688-0.557702-58.598607zM461.808366 887.333364c11.710716 10.313903 26.688849 15.96767 42.1244 17.451464 2.680039 0.260943 5.372358 0.169869 8.068769 0.171915 2.692319-0.002047 5.383614 0.090051 8.064676-0.171915 15.435551-1.484817 30.413684-7.137561 42.126446-17.451464 7.961322-7.010671 13.95892-15.44476 18.102287-24.777313l58.290591 0.056282c-5.945409 24.721031-19.302625 47.229674-38.880519 64.521502-21.465894 19.046798-48.930409 29.909194-77.964676 32.016181v0.00614c-3.251044 0.233314-6.426363 0.870834-9.714246 0.870834-0.008186 0-0.01535-0.004093-0.023536-0.004094s-0.019443 0.004093-0.027629 0.004094c-3.287883 0-6.463202-0.636496-9.714246-0.870834v-0.00614c-29.03222-2.108011-56.497759-12.969383-77.964676-32.016181-19.576871-17.291828-32.93204-39.800471-38.880519-64.521502l58.290591-0.056282c4.145413 9.331529 10.139941 17.766642 18.102287 24.777313z" /></svg>